<svg alt="HSE ART AND DESIGN SCHOOL" style="max-width:100%; width: 365px;" version="1.1" viewBox="0 0 1276 468" xmlns="http://www.w3.org/2000/svg" xmlns:xlink="http://www.w3.org/1999/xlink"> <defs> <polygon id="path-1" points="0.130451262 0.0958191715 140.440304 0.0958191715 140.440304 232.78634 0.130451262 232.78634"></polygon> </defs> <g fill="none" fill-rule="evenodd" id="logo-/-black" stroke="none" stroke-width="1"> <g id="HSE_design_logo_new"> <polyline fill="#1A1919" id="Fill-1" points="57.6907834 129.788683 34.3127496 129.788683 34.3127496 230 0 230 0 2 34.3127496 2 34.3127496 93.321948 57.6907834 93.321948 57.6907834 2 92 2 92 230 57.6907834 230 57.6907834 129.788683"></polyline> <path d="M152.151799,233 L145.392577,233 C117.744467,233 103,217.961981 103,189.714794 L103,143.972068 L137.407331,143.972068 L137.407331,183.885329 C137.407331,194.322643 140.785155,199.844918 148.773975,199.844918 C157.066621,199.844918 160.140619,194.322643 160.140619,180.19905 L160.140619,174.980392 C160.140619,158.713613 158.60362,152.880576 146.010951,136.610225 L123.888889,108.36661 C109.144422,89.3315499 104.844399,74.5971486 104.844399,51.8793807 L104.844399,44.513966 C104.844399,14.1200215 120.200091,0 147.544376,0 L153.996197,0 C182.562933,0 193.622177,12.5840717 193.622177,39.6024989 L193.622177,77.0546681 L160.140619,77.0546681 L160.140619,44.206776 C160.140619,36.5305994 158.60362,30.6975625 150.3074,30.6975625 C142.014754,30.6975625 140.170355,35.9162195 140.170355,46.6607236 L140.170355,50.9613828 C140.170355,63.8562165 142.629554,70.9144412 154.300023,85.9560325 L176.418511,114.506837 C192.085178,134.767086 197,146.436732 197,172.219255 L197,179.591814 C197,213.046942 182.562933,233 152.151799,233" fill="#1A1919" id="Fill-2"></path> <polyline fill="#1A1919" id="Fill-3" points="286.177233 2 286.177233 35.0935535 242.374198 35.0935535 242.374198 94.8552125 276.744857 94.8552125 276.744857 129.485596 242.374198 129.485596 242.374198 195.373182 288 195.373182 288 230 208 230 208 2 286.177233 2"></polyline> <path d="M377.765412,153.083607 L368.446195,68.8039786 L359.441353,153.083607 L377.765412,153.083607 Z M381.487317,187.093554 L356.026595,187.093554 L351.368794,230 L320,230 L348.25757,2 L389.87425,2 L420,230 L386.152345,230 L381.487317,187.093554 L381.487317,187.093554 Z" fill="#1A1919" id="Fill-4"></path> <path d="M459.967028,95.7716055 L469.248844,95.7716055 C478.840294,95.7716055 481.936633,89.6421132 481.936633,79.5296988 L481.936633,47.6591911 C481.936633,37.8534297 479.769196,32.9505489 469.248844,32.9505489 L459.967028,32.9505489 L459.967028,95.7716055 Z M459.967028,230 L425,230 L425,2 L481.6306,2 C504.83514,2 516.594027,11.8057615 516.594027,37.2401239 L516.594027,77.6897814 C516.594027,96.6915642 507.618245,104.044102 501.432767,106.803979 C509.166414,110.173595 516.594027,116.306653 516.594027,131.625035 L516.594027,211.611523 C516.594027,220.803979 518.44823,225.089988 520,228.459604 L520,230 L485.339006,230 C483.790836,227.546777 481.936633,223.563855 481.936633,211.30487 L481.936633,142.660974 C481.936633,132.544994 480.08243,128.255419 468.93921,128.255419 L459.967028,128.255419 L459.967028,230 L459.967028,230 Z" fill="#1A1919" id="Fill-5"></path> <polyline fill="#1A1919" id="Fill-6" points="585.05837 35.0935535 585.05837 230 550.94163 230 550.94163 35.0935535 522 35.0935535 522 2 614 2 614 35.0935535 585.05837 35.0935535"></polyline> <path d="M693.767499,153.083607 L684.447946,68.8039786 L675.442778,153.083607 L693.767499,153.083607 Z M697.489539,187.093554 L672.024284,187.093554 L667.366314,230 L636,230 L664.262205,2 L705.873162,2 L736,230 L702.151122,230 L697.489539,187.093554 L697.489539,187.093554 Z" fill="#1A1919" id="Fill-7"></path> <polyline fill="#1A1919" id="Fill-8" points="773.076674 2 802.629113 124.272497 802.629113 2 834 2 834 230 805.978886 230 773.076674 98.8345688 773.076674 230 742 230 742 2 773.076674 2"></polyline> <path d="M882.653428,196.899315 L890.934998,196.899315 C901.360999,196.899315 904.429569,191.386694 904.429569,179.131275 L904.429569,50.7257202 C904.429569,37.5467768 901.05771,32.9505489 892.465715,32.9505489 L882.653428,32.9505489 L882.653428,196.899315 Z M848,2 L901.05771,2 C930.797859,2 940,18.8516468 940,45.8228394 L940,184.643896 C940,212.527916 929.573999,230 901.05771,230 L848,230 L848,2 L848,2 Z" fill="#1A1919" id="Fill-9"></path> <path d="M34.6547725,431.902363 L42.9330955,431.902363 C53.3595004,431.902363 56.4281891,426.389656 56.4281891,414.134045 L56.4281891,285.726482 C56.4281891,272.550898 53.0561998,267.951033 44.4674398,267.951033 L34.6547725,267.951033 L34.6547725,431.902363 Z M0,237 L53.0561998,237 C82.7975022,237 92,253.855476 92,280.819959 L92,419.650318 C92,447.531208 81.573595,465 53.0561998,465 L0,465 L0,237 L0,237 Z" fill="#1A1919" id="Fill-10"></path> <polyline fill="#1A1919" id="Fill-11" points="183.173694 237 183.173694 270.097637 139.374198 270.097637 139.374198 329.853099 173.744857 329.853099 173.744857 364.48759 139.374198 364.48759 139.374198 430.376206 185 430.376206 185 465 105 465 105 237 183.173694 237"></polyline> <path d="M241.151799,468 L234.392577,468 C206.744467,468 192,452.95887 192,424.712549 L192,378.974798 L226.407331,378.974798 L226.407331,418.883263 C226.407331,429.320257 229.785155,434.845935 237.770401,434.845935 C246.066621,434.845935 249.140619,429.320257 249.140619,415.200668 L249.140619,409.982171 C249.140619,393.712319 247.60362,387.879461 235.010951,371.609609 L212.888889,343.363288 C198.144422,324.332383 193.844399,309.602005 193.844399,286.888506 L193.844399,279.516173 C193.844399,249.12316 209.200091,235 236.544376,235 L242.996197,235 C271.562933,235 282.622177,247.594402 282.622177,274.601285 L282.622177,312.059449 L249.140619,312.059449 L249.140619,279.208993 C249.140619,271.533051 247.60362,265.700193 239.3074,265.700193 C231.014754,265.700193 229.170355,270.91869 229.170355,281.662865 L229.170355,285.963392 C229.170355,298.854259 231.629554,305.919411 243.300023,320.956969 L265.418511,349.503327 C281.085178,369.766526 286,381.432242 286,407.221118 L286,414.589879 C286,448.043981 271.562933,468 241.151799,468" fill="#1A1919" id="Fill-12"></path> <g id="Group-16" transform="translate(295.000000, 235.000000)"> <mask fill="white" id="mask-2"> <use xlink:href="#path-1"></use> </mask> <g id="Clip-14"></g> <polygon fill="#1A1919" id="Fill-13" mask="url(#mask-2)" points="0.130451262 229.937533 35.1304331 229.937533 35.1304331 2.24310712 0.130451262 2.24310712"></polygon> <path d="M80.664285,233 C60.2236037,233 47.2175355,214.945688 47.2175355,191.378936 L47.2175355,49.063243 C47.2175355,23.6661325 57.1279504,0.0958191715 90.268378,0.0958191715 L97.0795359,0.0958191715 C134.558923,0.0958191715 138.894279,24.2750649 138.894279,51.210531 L138.894279,74.4710366 L104.824075,74.4710366 L104.824075,48.7569963 C104.824075,38.6615381 102.344669,33.1526584 93.6775607,33.1526584 C86.2429476,33.1526584 82.8337649,38.6615381 82.8337649,48.7569963 L82.8337649,181.89241 C82.8337649,192.600362 87.169121,198.112803 94.2938084,198.112803 C103.27805,198.112803 107.299877,191.991429 107.299877,183.420083 L107.299877,126.497367 L91.504477,126.497367 L91.504477,91.6066081 L140.440304,91.6066081 L140.440304,229.937533 L120.619474,229.937533 C120.309549,228.712546 117.523821,217.392101 114.73449,207.599328 C112.255084,215.251935 100.485115,233 82.8337649,233 L80.664285,233" fill="#1A1919" id="Fill-15" mask="url(#mask-2)"></path> </g> <polyline fill="#1A1919" id="Fill-17" points="478.073129 237 507.625568 359.270843 507.625568 237 539 237 539 465 510.975341 465 478.073129 333.836083 478.073129 465 447 465 447 237 478.073129 237"></polyline> <path d="M630.151799,468 L623.392577,468 C595.748042,468 581,452.95887 581,424.712549 L581,378.974798 L615.407331,378.974798 L615.407331,418.883263 C615.407331,429.320257 618.785155,434.845935 626.773975,434.845935 C635.066621,434.845935 638.137045,429.320257 638.137045,415.200668 L638.137045,409.982171 C638.137045,393.712319 636.60362,387.879461 624.003803,371.609609 L601.888889,343.363288 C587.144422,324.332383 582.844399,309.602005 582.844399,286.888506 L582.844399,279.516173 C582.844399,249.12316 598.203666,235 625.544376,235 L631.996197,235 C660.562933,235 671.622177,247.594402 671.622177,274.601285 L671.622177,312.059449 L638.137045,312.059449 L638.137045,279.208993 C638.137045,271.533051 636.60362,265.700193 628.3074,265.700193 C620.014754,265.700193 618.17393,270.91869 618.17393,281.662865 L618.17393,285.963392 C618.17393,298.854259 620.629554,305.919411 632.300023,320.956969 L654.418511,349.503327 C670.085178,369.766526 675,381.432242 675,407.221118 L675,414.589879 C675,448.043981 660.562933,468 630.151799,468" fill="#1A1919" id="Fill-18"></path> <path d="M741.214975,418.947932 L741.214975,365.911341 L775,365.911341 L775,418.641156 C775,443.17254 767.084955,468 733.912593,468 L726.302109,468 C691.603401,468 684,442.862197 684,419.871827 L684,280.681099 C684,257.38752 694.039889,235 725.087407,235 L732.99891,235 C770.739687,235 775,260.144937 775,282.525322 L775,323.294436 L741.214975,323.294436 L741.214975,283.135307 C741.214975,273.325607 738.172906,268.113981 729.655822,268.113981 C721.128113,268.113981 718.999728,273.022398 718.999728,283.135307 L718.999728,418.641156 C718.999728,428.757632 722.346357,434.276034 729.956842,434.276034 C738.172906,434.276034 741.214975,428.14408 741.214975,418.947932" fill="#1A1919" id="Fill-19"></path> <polyline fill="#1A1919" id="Fill-20" points="843.68725 364.794248 820.309217 364.794248 820.309217 465 786 465 786 237 820.309217 237 820.309217 328.323376 843.68725 328.323376 843.68725 237 878 237 878 465 843.68725 465 843.68725 364.794248"></polyline> <path d="M950.642844,285.589516 C950.642844,273.632383 946.647099,268.113981 938.655609,268.113981 C929.741198,268.113981 926.353579,273.942726 926.353579,285.589516 L926.353579,416.804066 C926.353579,426.613766 929.122341,434.276034 938.959672,434.276034 C948.1853,434.276034 950.642844,426.613766 950.642844,416.804066 L950.642844,285.589516 Z M986,414.353425 C986,446.233167 975.236171,468 941.728433,468 L935.88327,468 C902.679595,468 891,446.233167 891,414.353425 L891,287.426605 C891,255.850072 902.990812,235 935.57563,235 L941.420793,235 C975.236171,235 986,255.850072 986,287.119829 L986,414.353425 L986,414.353425 Z" fill="#1A1919" id="Fill-21"></path> <path d="M1055.64509,285.589516 C1055.64509,273.632383 1051.64562,268.113981 1043.65383,268.113981 C1034.73908,268.113981 1031.35491,273.942726 1031.35491,285.589516 L1031.35491,416.804066 C1031.35491,426.613766 1034.1202,434.276034 1043.9579,434.276034 C1053.18388,434.276034 1055.64509,426.613766 1055.64509,416.804066 L1055.64509,285.589516 Z M1091,414.353425 C1091,446.233167 1080.23934,468 1046.72677,468 L1040.88496,468 C1007.68003,468 996,446.233167 996,414.353425 L996,287.426605 C996,255.850072 1007.98769,235 1040.57731,235 L1046.42269,235 C1080.23934,235 1091,255.850072 1091,287.119829 L1091,414.353425 L1091,414.353425 Z" fill="#1A1919" id="Fill-22"></path> <polyline fill="#1A1919" id="Fill-23" points="1138.66803 237 1138.66803 429.759325 1181 429.759325 1181 465 1104 465 1104 237 1138.66803 237"></polyline> <g id="icon/logo/hse" transform="translate(1181.000000, 235.000000)"> <g id="HSE_znak_new-Copy"> <path d="M47.3942926,0 C21.2221343,0 0,21.2255516 0,47.3947482 C0,73.5632614 21.2221343,94.7883573 47.3942926,94.7883573 C73.5621223,94.7883573 94.7876739,73.5632614 94.7876739,47.3947482 C94.7876739,21.2255516 73.5621223,6.47496977e-15 47.3942926,6.47496977e-15" fill="#002D6E" id="Path"></path> <path d="M62.7268825,74.2747362 L53.944964,74.2747362 L53.944964,51.587506 L46.0453837,51.587506 L46.0453837,74.2747362 L37.8455396,74.2747362 L37.8455396,16.3078777 L47.4198082,16.3078777 C48.7445683,16.3078777 50.401259,16.3794125 51.9034892,16.7088369 C53.6708993,17.0963549 55.1396403,17.836307 56.0463549,18.7658034 C57.8547722,20.6202398 58.5858393,22.9102638 58.5858393,25.7481894 L46.0453837,25.7481894 L46.0453837,29.4930576 L58.5858393,29.4930576 C58.5858393,31.8193046 57.8729976,34.1546643 56.5491487,35.876283 C55.4604077,37.2919424 53.9219544,38.2731535 52.3491007,38.6526978 C51.1505516,38.9411151 49.4583213,39.0235851 48.2445084,39.0235851 L46.0453837,39.0235851 L46.0453837,42.8586691 L49.4011391,42.8586691 C50.6053837,42.8586691 51.5856835,42.9420504 52.7126978,43.0851199 C54.0536331,43.2543885 55.4622302,43.8027458 56.7468945,44.5164988 C57.382506,44.8691607 57.9875899,45.3425659 58.5391367,45.8168825 C59.2244125,46.4067026 59.8055755,47.1195444 60.3256835,47.8658753 C61.4556595,49.4836091 62.0570983,51.5547002 62.3746763,53.746307 C62.6571703,55.6973381 62.7268825,58.6229736 62.7268825,60.4728537 L62.7268825,74.2747362 L62.7268825,74.2747362 Z M57.8433813,40.3841127 L57.8433813,40.1870504 C57.8433813,40.1870504 65.9384293,36.9039688 65.9384293,26.9663309 C65.9384293,23.1011751 64.1156595,19.2002518 61.0758873,16.4835252 C58.5858393,14.2588849 55.7743405,12.9546283 51.4489928,12.5395444 C50.1921223,12.418801 47.8330695,12.2996523 46.4367746,12.2996523 L29.8842206,12.2996523 L29.8842206,78.472506 L70.7729496,78.472506 L70.7729496,61.7652638 C70.7729496,59.5053118 70.5738369,56.2766787 70.2159353,54.1586571 C69.9801439,52.7707914 69.326307,50.2741367 68.204988,48.4748321 C65.6415827,44.3590767 61.7896403,41.9002398 59.4704556,40.9254077 C58.5580456,40.541307 57.8433813,40.3841127 57.8433813,40.3841127 L57.8433813,40.3841127 Z" fill="#FFFFFF" fill-rule="nonzero" id="Shape"></path> </g> </g> </g> </g> </svg>